<svg width="16" height="16" viewBox="0 0 16 16" fill="none" xmlns="http://www.w3.org/2000/svg">
<path d="M3.60018 1.40009H12.4002C13.1335 1.40009 13.7335 2.00009 13.7335 2.73342V4.20009C13.7335 4.73342 13.4002 5.40008 13.0669 5.73342L10.2002 8.26675C9.80019 8.60008 9.53352 9.26675 9.53352 9.80009V12.6668C9.53352 13.0668 9.26685 13.6001 8.93352 13.8001L8.00019 14.4001C7.13352 14.9334 5.93351 14.3334 5.93351 13.2668V9.73342C5.93351 9.26675 5.66685 8.66675 5.40018 8.33342L2.86685 5.66675C2.53351 5.33342 2.26685 4.73342 2.26685 4.33342V2.80009C2.26685 2.00009 2.86685 1.40009 3.60018 1.40009Z" stroke="white" stroke-width="1.5" stroke-miterlimit="10" stroke-linecap="round" stroke-linejoin="round"/>
</svg>
