<svg width="15" height="16" viewBox="0 0 15 16" fill="none" xmlns="http://www.w3.org/2000/svg">
<path d="M6.80785 1.05255C7.02272 0.933223 7.26445 0.870605 7.51023 0.870605C7.75601 0.870605 7.99774 0.933223 8.21261 1.05255L13.6487 4.07185C13.7614 4.13452 13.8553 4.22618 13.9206 4.33734C13.986 4.4485 14.0205 4.57511 14.0205 4.70407V10.6609C14.0204 10.9189 13.9514 11.1722 13.8205 11.3945C13.6896 11.6168 13.5017 11.8001 13.2761 11.9254L8.21261 14.7392C7.99774 14.8586 7.75601 14.9212 7.51023 14.9212C7.26445 14.9212 7.02272 14.8586 6.80785 14.7392L1.74434 11.9254C1.51891 11.8002 1.33103 11.617 1.20016 11.3948C1.0693 11.1726 1.00019 10.9195 1 10.6617V4.70407C0.999995 4.57511 1.03446 4.4485 1.09983 4.33734C1.16521 4.22618 1.2591 4.13452 1.37181 4.07185L6.80857 1.05255H6.80785Z" stroke="#4F5B67" stroke-linecap="round" stroke-linejoin="round"/>
<path d="M7.51023 7.89579V15.1294M1 4.27899L7.51023 7.89579L1 4.27899ZM7.51023 7.89579L14.0205 4.27899L7.51023 7.89579Z" stroke="#4F5B67" stroke-linejoin="round"/>
<path d="M3.17004 8.13249L5.34012 9.34194M4.25508 6.08683L10.7653 2.47003L4.25508 6.08683Z" stroke="#4F5B67" stroke-linecap="round" stroke-linejoin="round"/>
</svg>
