<svg width="20" height="20" viewBox="0 0 20 20" fill="none" xmlns="http://www.w3.org/2000/svg">
<path d="M15 10C15 10.4584 15.375 10.8334 15.8333 10.8334H17.5C17.9583 10.8334 18.3333 10.4584 18.3333 10C18.3333 9.54169 17.9583 9.16669 17.5 9.16669H15.8333C15.375 9.16669 15 9.54169 15 10ZM13.825 14.0167C13.7595 14.102 13.7119 14.1997 13.6848 14.3037C13.6577 14.4078 13.6518 14.5163 13.6673 14.6227C13.6828 14.7291 13.7195 14.8314 13.7752 14.9234C13.8309 15.0154 13.9045 15.0953 13.9916 15.1584C14.4333 15.4834 14.9 15.8334 15.3416 16.1667C15.7083 16.4417 16.225 16.3667 16.4916 16C16.4916 15.9917 16.5 15.9917 16.5 15.9834C16.5654 15.8972 16.613 15.799 16.6401 15.6942C16.6671 15.5895 16.6731 15.4805 16.6576 15.3734C16.6421 15.2664 16.6054 15.1635 16.5497 15.0708C16.4941 14.9781 16.4205 14.8974 16.3333 14.8334C15.8916 14.5 15.425 14.15 14.9916 13.825C14.9041 13.7603 14.8047 13.7136 14.6991 13.6874C14.5935 13.6611 14.4838 13.656 14.3762 13.6723C14.2686 13.6885 14.1652 13.7258 14.0721 13.7821C13.9789 13.8383 13.8978 13.9124 13.8333 14C13.8333 14.0084 13.825 14.0167 13.825 14.0167ZM16.5083 4.00836C16.5083 4.00002 16.5 4.00002 16.5 3.99169C16.4358 3.90469 16.355 3.83129 16.2623 3.77575C16.1696 3.7202 16.0668 3.68362 15.9598 3.66811C15.8528 3.65261 15.7438 3.6585 15.6391 3.68543C15.5345 3.71237 15.4362 3.75981 15.35 3.82502C14.9083 4.15836 14.4333 4.50836 14 4.84169C13.6333 5.11669 13.5666 5.63336 13.8416 5.99169C13.8416 6.00002 13.85 6.00002 13.85 6.00836C14.125 6.37502 14.6333 6.45002 15 6.17502C15.4416 5.85002 15.9083 5.49169 16.35 5.15836C16.7083 4.89169 16.775 4.37502 16.5083 4.00836ZM6.66663 7.50002H3.33329C2.41663 7.50002 1.66663 8.25002 1.66663 9.16669V10.8334C1.66663 11.75 2.41663 12.5 3.33329 12.5H4.16663V15C4.16663 15.4584 4.54163 15.8334 4.99996 15.8334C5.45829 15.8334 5.83329 15.4584 5.83329 15V12.5H6.66663L10.8333 15V5.00002L6.66663 7.50002ZM12.9166 10C12.9166 8.89169 12.4333 7.89169 11.6666 7.20836V12.7834C12.4333 12.1084 12.9166 11.1084 12.9166 10Z" fill="#4F5B67"/>
</svg>
