<svg width="15" height="18" viewBox="0 0 15 18" fill="none" xmlns="http://www.w3.org/2000/svg">
<path d="M1.8125 16.8928H13.1875C13.403 16.8928 13.6097 16.8097 13.762 16.6617C13.9144 16.5136 14 16.3129 14 16.1035V5.05355L10.3438 1.10712H1.8125C1.59701 1.10712 1.39035 1.19027 1.23798 1.33829C1.0856 1.48631 1 1.68707 1 1.8964V16.1035C1 16.3129 1.0856 16.5136 1.23798 16.6617C1.39035 16.8097 1.59701 16.8928 1.8125 16.8928Z" stroke="#4F5B67" stroke-linecap="round" stroke-linejoin="round"/>
<path d="M7.5 10.5792C8.39746 10.5792 9.125 9.87245 9.125 9.00063C9.125 8.12881 8.39746 7.42206 7.5 7.42206C6.60254 7.42206 5.875 8.12881 5.875 9.00063C5.875 9.87245 6.60254 10.5792 7.5 10.5792Z" stroke="#4F5B67" stroke-linecap="round" stroke-linejoin="round"/>
<path d="M9.9375 1.10718V5.05361H14M10.75 13.7357C10.75 12.8984 10.4076 12.0954 9.7981 11.5033C9.1886 10.9112 8.36195 10.5786 7.5 10.5786C6.63805 10.5786 5.8114 10.9112 5.2019 11.5033C4.59241 12.0954 4.25 12.8984 4.25 13.7357H10.75Z" stroke="#4F5B67" stroke-linecap="round" stroke-linejoin="round"/>
</svg>
