<svg width="18" height="18" viewBox="0 0 18 18" fill="none" xmlns="http://www.w3.org/2000/svg">
<path d="M7.20005 4.50001C7.20005 4.02262 7.38969 3.56479 7.72726 3.22722C8.06482 2.88965 8.52266 2.70001 9.00005 2.70001C9.47744 2.70001 9.93528 2.88965 10.2728 3.22722C10.6104 3.56479 10.8 4.02262 10.8 4.50001V5.21101C13.4028 5.98501 15.3 8.39611 15.3 11.25C15.3 11.3694 15.2526 11.4838 15.1682 11.5682C15.0839 11.6526 14.9694 11.7 14.85 11.7H3.15005C3.0307 11.7 2.91624 11.6526 2.83185 11.5682C2.74746 11.4838 2.70005 11.3694 2.70005 11.25C2.70013 9.89313 3.13811 8.5725 3.94886 7.48447C4.75962 6.39644 5.89985 5.59911 7.20005 5.21101V4.50001ZM9.45005 7.65001C9.82985 7.65001 10.206 7.65361 10.5912 7.79221C10.9629 7.92541 11.3742 8.19811 11.7756 8.80021C11.8084 8.84938 11.8506 8.8916 11.8997 8.92448C11.9488 8.95735 12.004 8.98023 12.0619 8.9918C12.1199 9.00338 12.1795 9.00342 12.2375 8.99194C12.2955 8.98045 12.3506 8.95766 12.3998 8.92486C12.449 8.89206 12.4912 8.8499 12.5241 8.80079C12.5569 8.75167 12.5798 8.69656 12.5914 8.6386C12.603 8.58065 12.603 8.52098 12.5915 8.463C12.58 8.40502 12.5572 8.34988 12.5244 8.30071C12.0249 7.55191 11.4624 7.14871 10.8954 6.94531C10.3545 6.75001 9.83705 6.75001 9.46805 6.75001H9.45005C9.3307 6.75001 9.21624 6.79742 9.13185 6.88181C9.04746 6.96621 9.00005 7.08066 9.00005 7.20001C9.00005 7.31936 9.04746 7.43382 9.13185 7.51821C9.21624 7.6026 9.3307 7.65001 9.45005 7.65001ZM3.15005 12.6C2.79201 12.6 2.44863 12.7422 2.19545 12.9954C1.94228 13.2486 1.80005 13.592 1.80005 13.95C1.80005 14.3081 1.94228 14.6514 2.19545 14.9046C2.44863 15.1578 2.79201 15.3 3.15005 15.3H14.85C15.2081 15.3 15.5515 15.1578 15.8046 14.9046C16.0578 14.6514 16.2 14.3081 16.2 13.95C16.2 13.592 16.0578 13.2486 15.8046 12.9954C15.5515 12.7422 15.2081 12.6 14.85 12.6H3.15005Z" fill="#4F5B67"/>
</svg>
