<svg width="16" height="16" viewBox="0 0 16 16" fill="none" xmlns="http://www.w3.org/2000/svg">
<g clip-path="url(#clip0_2_537)">
<path d="M7.99992 2.28572C6.24326 2.28572 4.4866 2.95428 3.14881 4.29198C0.651543 6.78967 0.48582 10.7485 2.65222 13.4404C2.5321 13.1186 2.50697 12.769 2.57981 12.4333C2.65265 12.0976 2.8204 11.7899 3.0631 11.5468C3.33325 11.277 3.68244 11.1005 4.05986 11.043C4.43727 10.9854 4.82321 11.0498 5.16149 11.2268C4.63851 10.5111 4.40461 9.62466 4.50647 8.7442C4.60834 7.86374 5.03847 7.05407 5.71103 6.47676C6.3836 5.89944 7.24914 5.59695 8.13492 5.62963C9.0207 5.66232 9.86158 6.02778 10.4898 6.6531C10.8029 6.9662 11.2276 7.1421 11.6704 7.1421C12.1132 7.1421 12.5379 6.9662 12.851 6.6531C13.1642 6.33999 13.3401 5.91533 13.3401 5.47254C13.3401 5.02974 13.1642 4.60508 12.851 4.29198C12.2144 3.65456 11.4582 3.14919 10.6256 2.80489C9.79315 2.4606 8.90082 2.28416 7.99992 2.28572ZM13.3488 4.84626C13.4687 5.16808 13.4937 5.51756 13.4207 5.85316C13.3478 6.18876 13.18 6.49636 12.9373 6.73938C12.6672 7.00913 12.318 7.18563 11.9406 7.24318C11.5631 7.30074 11.1772 7.23635 10.8389 7.05938C11.3364 7.73771 11.5747 8.57166 11.5108 9.41042C11.4469 10.2492 11.0849 11.0374 10.4903 11.6325C10.1772 11.9455 10.0013 12.3701 10.0012 12.8128C10.0012 13.032 10.0443 13.2491 10.1282 13.4517C10.2121 13.6542 10.335 13.8383 10.49 13.9933C10.6451 14.1483 10.8291 14.2713 11.0316 14.3552C11.2342 14.4392 11.4512 14.4824 11.6705 14.4824C12.1132 14.4824 12.5379 14.3066 12.851 13.9936C15.3483 11.4965 15.514 7.53766 13.3482 4.84626H13.3488ZM4.32888 11.1433C4.10955 11.1432 3.89235 11.1863 3.68969 11.2701C3.48704 11.354 3.3029 11.477 3.14781 11.632C2.99273 11.7871 2.86974 11.9712 2.78587 12.1739C2.70201 12.3765 2.65892 12.5937 2.65908 12.813C2.65892 13.0323 2.70201 13.2495 2.78587 13.4522C2.86974 13.6548 2.99273 13.8389 3.14781 13.994C3.3029 14.1491 3.48704 14.2721 3.68969 14.3559C3.89235 14.4398 4.10955 14.4829 4.32888 14.4827C4.5482 14.4829 4.7654 14.4398 4.96806 14.3559C5.17072 14.2721 5.35485 14.1491 5.50994 13.994C5.66502 13.8389 5.78801 13.6548 5.87188 13.4522C5.95574 13.2495 5.99883 13.0323 5.99868 12.813C5.9989 12.5937 5.95589 12.3765 5.87209 12.1738C5.7883 11.9712 5.66537 11.787 5.51034 11.6319C5.35531 11.4767 5.17121 11.3537 4.96859 11.2698C4.76596 11.1858 4.54877 11.1427 4.32945 11.1428L4.32888 11.1433ZM10.0835 11.9816C9.47901 12.4246 8.74908 12.6635 7.99964 12.6635C7.25019 12.6635 6.52026 12.4246 5.91581 11.9816C6.09262 12.3199 6.15691 12.7058 6.09936 13.0831C6.04181 13.4605 5.86541 13.8096 5.5958 14.0799C5.35267 14.3226 5.04489 14.4903 4.70913 14.563C4.37337 14.6358 4.02377 14.6105 3.70199 14.4902C6.20269 16.5033 9.79659 16.5033 12.2967 14.4902C11.975 14.6104 11.6255 14.6356 11.2899 14.5628C10.9542 14.4901 10.6466 14.3225 10.4035 14.0799C10.1337 13.8097 9.9572 13.4606 9.89964 13.0832C9.84208 12.7058 9.90648 12.3199 10.0835 11.9816Z" fill="#4F5B67"/>
</g>
<defs>
<clipPath id="clip0_2_537">
<rect width="16" height="16" fill="white"/>
</clipPath>
</defs>
</svg>
