<svg width="24" height="22" viewBox="0 0 24 22" fill="none" xmlns="http://www.w3.org/2000/svg">
<rect width="23.2027" height="21.9996" fill="white"/>
<path d="M11.6013 4.4001C10.9859 4.4001 10.3958 4.63188 9.96064 5.04445C9.52551 5.45702 9.28105 6.01659 9.28105 6.60006C9.28105 7.18353 9.52551 7.74309 9.96064 8.15567C10.3958 8.56824 10.9859 8.80002 11.6013 8.80002C12.2167 8.80002 12.8069 8.56824 13.242 8.15567C13.6771 7.74309 13.9216 7.18353 13.9216 6.60006C13.9216 6.01659 13.6771 5.45702 13.242 5.04445C12.8069 4.63188 12.2167 4.4001 11.6013 4.4001ZM7.54084 15.9499C7.387 15.9499 7.23946 16.0078 7.13067 16.111C7.02189 16.2141 6.96078 16.354 6.96078 16.4999C6.96078 16.6458 7.02189 16.7857 7.13067 16.8888C7.23946 16.9919 7.387 17.0499 7.54084 17.0499H15.6618C15.8156 17.0499 15.9632 16.9919 16.072 16.8888C16.1808 16.7857 16.2419 16.6458 16.2419 16.4999C16.2419 16.354 16.1808 16.2141 16.072 16.111C15.9632 16.0078 15.8156 15.9499 15.6618 15.9499H7.54084ZM4.6405 4.4001C4.6405 3.81663 4.88496 3.25706 5.32009 2.84449C5.75523 2.43192 6.3454 2.20013 6.96078 2.20013H16.2419C16.8572 2.20013 17.4474 2.43192 17.8825 2.84449C18.3177 3.25706 18.5621 3.81663 18.5621 4.4001V17.5999C18.5621 18.1833 18.3177 18.7429 17.8825 19.1555C17.4474 19.5681 16.8572 19.7998 16.2419 19.7998H6.96078C6.3454 19.7998 5.75523 19.5681 5.32009 19.1555C4.88496 18.7429 4.6405 18.1833 4.6405 17.5999V4.4001ZM16.2419 3.30012H6.96078C6.65309 3.30012 6.358 3.41601 6.14044 3.62229C5.92287 3.82858 5.80064 4.10836 5.80064 4.4001V13.1999H8.12091V11C8.12091 10.7083 8.24314 10.4285 8.46071 10.2222C8.67828 10.0159 8.97336 9.9 9.28105 9.9H13.9216C14.2293 9.9 14.5244 10.0159 14.7419 10.2222C14.9595 10.4285 15.0817 10.7083 15.0817 11V13.1999H17.402V4.4001C17.402 4.10836 17.2798 3.82858 17.0622 3.62229C16.8446 3.41601 16.5496 3.30012 16.2419 3.30012ZM5.80064 14.2999V17.5999C5.80064 17.8916 5.92287 18.1714 6.14044 18.3777C6.358 18.584 6.65309 18.6999 6.96078 18.6999H16.2419C16.5496 18.6999 16.8446 18.584 17.0622 18.3777C17.2798 18.1714 17.402 17.8916 17.402 17.5999V14.2999H5.80064Z" fill="#3333D1"/>
</svg>
